<svg id="Layer_1" data-name="Layer 1" xmlns="http://www.w3.org/2000/svg" viewBox="0 0 93.32 23.07"><defs><style>.cls-1{fill:#707174;}.cls-2{fill:#f07a25;}.cls-3{fill:#0c8d48;}.cls-4{fill:#f8f8f8;}</style></defs><path class="cls-1" d="M27.7,47.5a1.6,1.6,0,0,1,.78,2.12l0,.07c-.45,1.46-.82,2.94-1.22,4.41a2.69,2.69,0,0,1-2.9,2.46l-.24,0-18.58,0c-.5,0-.67,0-.52-.59q2.4-8.49,4.74-17a.66.66,0,0,1,.73-.59h0c6.38,0,12.75,0,19.13,0a1.29,1.29,0,0,1,1.52,1,1.26,1.26,0,0,1-.08.79c-.48,1.88-1,3.76-1.55,5.63A2.69,2.69,0,0,1,27.7,47.5ZM19.15,42c-2,0-4,0-5.93,0a.76.76,0,0,0-.89.6.5.5,0,0,0,0,.12A20.32,20.32,0,0,1,11.67,45c-.17.51-.14.77.52.77,4,0,8,0,11.94,0a2.35,2.35,0,0,0,2.35-1.94,1.27,1.27,0,0,0-.64-1.7,1.32,1.32,0,0,0-.76-.1Zm-3,11H22a2.4,2.4,0,0,0,2.18-1.19c.8-1.3.26-2.57-1.12-2.58H11.13a.7.7,0,0,0-.8.57h0a24.9,24.9,0,0,1-.67,2.43c-.25.71,0,.79.64.78,1.95,0,3.9,0,5.84,0Z" transform="translate(-3.68 -38.38)"/><path class="cls-1" d="M79.92,48.19c-.61.54-1.22,1.06-1.81,1.61-2.26,2.08-4.53,4.17-6.78,6.27-.38.35-.57.41-.87-.11C68.8,53,67.09,50.13,65.4,47.21L65.21,47a2.24,2.24,0,0,0-.45,1.13q-1.07,3.81-2.08,7.62a.81.81,0,0,1-.83.78l-.13,0c-.76-.06-1.52,0-2.29,0-.35,0-.54,0-.42-.49q2.39-8.59,4.75-17.21a.7.7,0,0,1,.13-.17,3,3,0,0,1,.73,1Q67.83,45,71,50.32c.48.8.47.79,1.19.17q5.79-5,11.61-9.87c.77-.67,1.55-1.33,2.4-2A1.81,1.81,0,0,1,86,39.69c-1.47,5.38-3,10.76-4.43,16.15a.72.72,0,0,1-.77.68h-.08a20.55,20.55,0,0,0-2.22,0c-.63,0-.68-.2-.52-.74.66-2.36,1.3-4.72,1.94-7.08A.42.42,0,0,0,79.92,48.19Z" transform="translate(-3.68 -38.38)"/><path class="cls-1" d="M42.76,45.7c2.08,0,4.16,0,6.24,0a1,1,0,0,0,1.12-.84s0-.05,0-.08c.49-1.85,1-3.7,1.47-5.57a.87.87,0,0,1,.91-.85l.16,0a15.73,15.73,0,0,0,2.06,0c.55,0,.68.13.52.68-.78,2.79-1.54,5.58-2.3,8.38s-1.48,5.37-2.19,8.07a1,1,0,0,1-1.06,1l-.22,0a10.91,10.91,0,0,0-2,0c-.53,0-.61-.15-.47-.65C47.6,53.92,48.11,52,48.67,50c.17-.57.09-.8-.58-.79q-6.36,0-12.73,0a.87.87,0,0,0-1,.73.22.22,0,0,0,0,.08c-.49,2-1.08,3.91-1.59,5.87a.69.69,0,0,1-.75.63H32a20.55,20.55,0,0,0-2.22,0c-.77,0-.64-.35-.51-.82.84-3,1.66-6.05,2.49-9.07.69-2.54,1.39-5.08,2.07-7.62a.65.65,0,0,1,.68-.61h.07a23.42,23.42,0,0,0,2.37,0c.55,0,.61.18.47.66-.56,2-1.08,4-1.65,6-.16.53,0,.63.48.63C38.39,45.69,40.57,45.7,42.76,45.7Z" transform="translate(-3.68 -38.38)"/><path class="cls-1" d="M59.63,38.46h.79c1,0,1,0,.78,1q-2.19,8-4.4,16c-.34,1.19-.35,1.18-1.57,1.19-.58,0-1.16,0-1.74,0s-.62-.15-.48-.66q2.1-7.49,4.15-15a12.15,12.15,0,0,0,.43-1.6.9.9,0,0,1,.86-.94,1.1,1.1,0,0,1,.31,0A5.06,5.06,0,0,0,59.63,38.46Z" transform="translate(-3.68 -38.38)"/><path class="cls-2" d="M88.43,52.81l-3.87,3.61-.13-.1c.45-1.65.88-3.29,1.34-4.94q1.68-6.12,3.38-12.23a.55.55,0,0,1,.28-.53c.26,0,.26.27.35.44.58,1.06,1,2.19,1.69,3.2a45.2,45.2,0,0,0,2.18,4.55.89.89,0,0,1-.25,1.25h0C91.71,49.63,90.08,51.23,88.43,52.81Z" transform="translate(-3.68 -38.38)"/><path class="cls-3" d="M88.43,52.81c1.65-1.58,3.28-3.18,4.95-4.74a.89.89,0,0,0,.28-1.24v0a45.2,45.2,0,0,1-2.18-4.55l1.15-3.87c.48.92.88,1.68,1.26,2.44,1,1.93,1.91,3.87,2.91,5.78a1.12,1.12,0,0,1-.26,1.56.1.1,0,0,0,0,0c-2.75,2.53-5.43,5.14-8.14,7.71a1.39,1.39,0,0,1-.68.49A23.3,23.3,0,0,0,88.43,52.81Z" transform="translate(-3.68 -38.38)"/><path class="cls-1" d="M57.33,58.83a.33.33,0,0,1-.36-.11C57.13,58.63,57.26,58.62,57.33,58.83Z" transform="translate(-3.68 -38.38)"/><path class="cls-4" d="M19.15,42h5.93a1.28,1.28,0,0,1,1.5,1,1.36,1.36,0,0,1-.1.77,2.35,2.35,0,0,1-2.35,1.94c-4,0-8,0-11.94,0-.66,0-.69-.26-.52-.77a20.32,20.32,0,0,0,.64-2.28.75.75,0,0,1,.78-.73h.13C15.19,42,17.17,42,19.15,42Z" transform="translate(-3.68 -38.38)"/><path class="cls-4" d="M16.14,53c-1.94,0-3.89,0-5.84,0-.6,0-.89-.07-.64-.78a24.9,24.9,0,0,0,.67-2.43.69.69,0,0,1,.79-.57H23.05c1.38,0,1.92,1.28,1.12,2.58A2.4,2.4,0,0,1,22,53Z" transform="translate(-3.68 -38.38)"/><path class="cls-1" d="M4.46,58.65a.16.16,0,0,1,.1-.08H5.5a.58.58,0,0,1,.66.48.62.62,0,0,1,0,.27A1.15,1.15,0,0,1,5.5,60a.52.52,0,0,1,.34.66h0a1.16,1.16,0,0,1-1.11.79h-1s-.05,0-.06-.06,0,0,0,0Zm.36,2.28a.54.54,0,0,0,.48-.37.3.3,0,0,0-.21-.35H4.54l-.21.72Zm.28-1.17a.5.5,0,0,0,.46-.36.26.26,0,0,0-.12-.33l-.13,0H4.87l-.2.71Z" transform="translate(-3.68 -38.38)"/><path class="cls-1" d="M8.06,58.65a.16.16,0,0,1,.1-.08h.38a.06.06,0,0,1,.06.06v0l-.31,1.07H9.61l.31-1.07a.13.13,0,0,1,.11-.08h.37a.06.06,0,0,1,.06.06v0l-.77,2.68a.14.14,0,0,1-.1.08H9.21a.06.06,0,0,1-.06-.06v0l.32-1.12H8.15l-.33,1.12a.12.12,0,0,1-.1.08H7.34a.06.06,0,0,1,0-.06v0Z" transform="translate(-3.68 -38.38)"/><path class="cls-1" d="M11.14,61.3l2.06-2.72a.1.1,0,0,1,.08,0h0a.07.07,0,0,1,.06,0h0l.46,2.72a.1.1,0,0,1-.09.11h-.36a.08.08,0,0,1-.09-.07s0,0,0,0l-.07-.43H12l-.32.43a.22.22,0,0,1-.14.09h-.36C11.12,61.41,11.1,61.35,11.14,61.3Zm2-.86L13,59.55h0l-.66.89Z" transform="translate(-3.68 -38.38)"/><path class="cls-1" d="M16.07,58.65a.11.11,0,0,1,.1-.08h1.16a.65.65,0,0,1,.68.6.61.61,0,0,1,0,.27,1.34,1.34,0,0,1-.84.82l.26,1a.11.11,0,0,1-.09.12h-.44a.07.07,0,0,1-.06,0l-.23-1.07h-.45l-.3,1a.12.12,0,0,1-.1.08h-.37a.06.06,0,0,1-.06-.06v0Zm.84,1.21a.6.6,0,0,0,.53-.41.29.29,0,0,0-.18-.37.2.2,0,0,0-.11,0h-.67l-.23.8Z" transform="translate(-3.68 -38.38)"/><path class="cls-1" d="M18.73,61.3l2.05-2.72a.1.1,0,0,1,.08,0h.05s.05,0,.05,0h0l.47,2.72a.12.12,0,0,1-.09.11H21a.1.1,0,0,1-.09-.07v0l-.07-.43H19.59l-.33.43a.19.19,0,0,1-.14.09h-.35C18.71,61.41,18.69,61.35,18.73,61.3Zm2-.86-.15-.89h0l-.65.89Z" transform="translate(-3.68 -38.38)"/><path class="cls-1" d="M23.77,59.06h-.63a.06.06,0,0,1-.06-.05s0,0,0,0l.09-.33a.13.13,0,0,1,.1-.08h1.78a.06.06,0,0,1,.06.06v0L25,59a.1.1,0,0,1-.1.08H24.3l-.66,2.27a.12.12,0,0,1-.1.08h-.37a.06.06,0,0,1-.06-.06v0Z" transform="translate(-3.68 -38.38)"/><path class="cls-1" d="M28.63,58.65a.12.12,0,0,1,.1-.08h.37a.06.06,0,0,1,.06.06v0l-.78,2.68a.12.12,0,0,1-.1.08h-.37a.06.06,0,0,1-.06-.06v0Z" transform="translate(-3.68 -38.38)"/><path class="cls-1" d="M31,58.61a.09.09,0,0,1,.09-.08h.11l1.17,1.79h0l.49-1.67a.11.11,0,0,1,.1-.08h.37a.06.06,0,0,1,.06.06v0l-.79,2.72a.14.14,0,0,1-.1.08h-.1l-1.16-1.86h0l-.51,1.74a.12.12,0,0,1-.1.08h-.37a.06.06,0,0,1-.06-.06v0Z" transform="translate(-3.68 -38.38)"/><path class="cls-1" d="M35.49,59.06h-.63a0,0,0,0,1,0-.05v0l.09-.33a.13.13,0,0,1,.11-.08h1.77a.05.05,0,0,1,.06.06s0,0,0,0l-.1.33a.1.1,0,0,1-.1.08H36l-.66,2.27a.12.12,0,0,1-.1.08h-.37a.06.06,0,0,1-.06-.06v0Z" transform="translate(-3.68 -38.38)"/><path class="cls-1" d="M38.35,58.65a.16.16,0,0,1,.1-.08h1.66a.06.06,0,0,1,.06.06v0l-.1.33a.1.1,0,0,1-.1.08H38.76l-.19.66h1a.06.06,0,0,1,.06.06v0l-.09.34a.12.12,0,0,1-.1.07h-1l-.21.71h1.21a.06.06,0,0,1,.06,0v0l-.1.33a.12.12,0,0,1-.1.08H37.63s-.05,0-.06-.06,0,0,0,0Z" transform="translate(-3.68 -38.38)"/><path class="cls-1" d="M41.83,58.65a.16.16,0,0,1,.1-.08H43.1a.65.65,0,0,1,.68.6.62.62,0,0,1-.05.27,1.3,1.3,0,0,1-.83.82l.26,1a.09.09,0,0,1-.09.11h-.44a.07.07,0,0,1-.06,0l-.23-1.07h-.45l-.3,1a.14.14,0,0,1-.1.08h-.38a.06.06,0,0,1,0-.06v0Zm.85,1.21a.58.58,0,0,0,.52-.41.28.28,0,0,0-.17-.37.25.25,0,0,0-.12,0h-.66l-.23.8Z" transform="translate(-3.68 -38.38)"/><path class="cls-1" d="M45.63,58.65a.16.16,0,0,1,.1-.08h1.66a.06.06,0,0,1,.06.06v0l-.1.33a.1.1,0,0,1-.1.08h-1.2l-.22.76h1a.06.06,0,0,1,.06.06v0l-.1.33a.12.12,0,0,1-.1.08h-1l-.3,1a.14.14,0,0,1-.1.08h-.38a.06.06,0,0,1,0-.06v0Z" transform="translate(-3.68 -38.38)"/><path class="cls-1" d="M47.78,61.3l2-2.72a.11.11,0,0,1,.09,0h0a0,0,0,0,1,0,0h0l.47,2.72a.12.12,0,0,1-.09.11H50a.1.1,0,0,1-.1-.07v0l-.07-.43H48.64l-.33.43a.19.19,0,0,1-.14.09h-.35C47.76,61.41,47.74,61.35,47.78,61.3Zm2-.86-.15-.89h0l-.66.89Z" transform="translate(-3.68 -38.38)"/><path class="cls-1" d="M54,58.53a1.06,1.06,0,0,1,.88.38.08.08,0,0,1,0,.11h0l-.32.26a.08.08,0,0,1-.1,0h0a.69.69,0,0,0-.55-.24,1.29,1.29,0,0,0-1.18.94.66.66,0,0,0,.34.88.73.73,0,0,0,.3.06,1.35,1.35,0,0,0,.69-.23.07.07,0,0,1,.1,0l.18.25a.09.09,0,0,1,0,.11,1.85,1.85,0,0,1-1.1.4,1.07,1.07,0,0,1-1.13-1,1.09,1.09,0,0,1,.08-.47A2.11,2.11,0,0,1,54,58.53Z" transform="translate(-3.68 -38.38)"/><path class="cls-1" d="M56.56,58.65a.12.12,0,0,1,.1-.08h1.65a.06.06,0,0,1,.06.06v0l-.1.33a.1.1,0,0,1-.1.08H57l-.19.66h1a.06.06,0,0,1,.06.06v0l-.1.34a.1.1,0,0,1-.1.07h-1l-.2.71h1.2a.06.06,0,0,1,.06,0v0l-.1.33a.12.12,0,0,1-.1.08H55.84a.06.06,0,0,1-.06-.06v0Z" transform="translate(-3.68 -38.38)"/><path class="cls-1" d="M62,58.65a.14.14,0,0,1,.1-.08h1.66a.06.06,0,0,1,.06.06v0l-.09.33a.11.11,0,0,1-.1.08H62.44l-.22.76h1a.06.06,0,0,1,.06.06v0l-.09.33a.16.16,0,0,1-.1.08h-1l-.29,1a.16.16,0,0,1-.1.08h-.38a.06.06,0,0,1-.06-.06v0Z" transform="translate(-3.68 -38.38)"/><path class="cls-1" d="M66.71,58.53a1.07,1.07,0,0,1,1.12,1,1,1,0,0,1-.08.46,2.11,2.11,0,0,1-1.89,1.46,1.05,1.05,0,0,1-1.11-1,1,1,0,0,1,.07-.47A2.11,2.11,0,0,1,66.71,58.53ZM66,60.92a1.34,1.34,0,0,0,1.2-.93.67.67,0,0,0-.38-.88.56.56,0,0,0-.28,0,1.34,1.34,0,0,0-1.21.93.67.67,0,0,0,.38.88.58.58,0,0,0,.29.05Z" transform="translate(-3.68 -38.38)"/><path class="cls-1" d="M69.76,58.65a.11.11,0,0,1,.1-.08H71a.64.64,0,0,1,.68.6.5.5,0,0,1,0,.27,1.34,1.34,0,0,1-.84.82l.26,1a.11.11,0,0,1-.09.12h-.44s0,0,0,0l-.24-1.07h-.45l-.3,1a.12.12,0,0,1-.1.08H69a.06.06,0,0,1-.06-.06v0Zm.84,1.21a.59.59,0,0,0,.53-.41.29.29,0,0,0-.17-.37.25.25,0,0,0-.12,0h-.66l-.24.8Z" transform="translate(-3.68 -38.38)"/><path class="cls-1" d="M75.86,58.59a.13.13,0,0,1,.1-.06H76a.07.07,0,0,1,.06,0l.34,1.91h0l1.45-1.91a.12.12,0,0,1,.08,0H78s0,0,0,0a0,0,0,0,1,0,0l-.3,2.72a.1.1,0,0,1-.1.1h-.37s-.06,0-.06-.07l.2-1.53h0L76.26,61.4a.09.09,0,0,1-.08.05h-.07a.06.06,0,0,1-.06-.05l-.26-1.59h0l-.68,1.53a.13.13,0,0,1-.09.07h-.37s-.07,0,0-.1Z" transform="translate(-3.68 -38.38)"/><path class="cls-1" d="M81.48,58.53a1.06,1.06,0,0,1,1.12,1,.9.9,0,0,1-.08.46,2.09,2.09,0,0,1-1.88,1.46,1.07,1.07,0,0,1-1.12-1A1.09,1.09,0,0,1,79.6,60,2.09,2.09,0,0,1,81.48,58.53Zm-.69,2.39A1.36,1.36,0,0,0,82,60a.68.68,0,0,0-.39-.88.54.54,0,0,0-.28,0,1.33,1.33,0,0,0-1.2.93.67.67,0,0,0,.37.88.58.58,0,0,0,.29.05Z" transform="translate(-3.68 -38.38)"/><path class="cls-1" d="M84.55,58.61a.1.1,0,0,1,.1-.08h.1l1.17,1.79h0l.49-1.67a.11.11,0,0,1,.1-.08h.37a.06.06,0,0,1,.06.06v0l-.79,2.72a.12.12,0,0,1-.1.08H86l-1.16-1.86h0l-.51,1.74a.12.12,0,0,1-.1.08h-.37a.06.06,0,0,1-.06-.06v0Z" transform="translate(-3.68 -38.38)"/><path class="cls-1" d="M88.77,58.65a.11.11,0,0,1,.1-.08h1.65a.06.06,0,0,1,.06,0v0l-.1.33a.1.1,0,0,1-.1.08h-1.2l-.2.66h1a.06.06,0,0,1,.06.06v0l-.1.34a.1.1,0,0,1-.1.07h-1l-.2.71h1.2a.06.06,0,0,1,.06,0v0l-.1.33a.12.12,0,0,1-.1.08H88.05a.06.06,0,0,1-.06-.06v0Z" transform="translate(-3.68 -38.38)"/><path class="cls-1" d="M92.39,60l-.54-1.35a.11.11,0,0,1,.09-.12h.43a.07.07,0,0,1,0,0l.38.93.93-.93.07,0h.42c.06,0,.08.07,0,.12L92.92,60l-.37,1.29a.16.16,0,0,1-.1.08h-.38a.06.06,0,0,1-.06-.06v0Z" transform="translate(-3.68 -38.38)"/></svg>