<?xml version="1.0" encoding="UTF-8" standalone="no"?>
<svg xmlns="http://www.w3.org/2000/svg" id="Layer_1" data-name="Layer 1" viewBox="0 0 64 64"><defs><style>.cls-1{fill:#707174;}.cls-2{fill:#f07a25;}.cls-3{fill:#0c8d48;}.cls-4{fill:#f8f8f8;}</style></defs><title>BhimLogos</title><path class="cls-1" d="M19.73753,30.03964a0.865,0.865,0,0,1,.40844,1.182c-0.24191.78718-.44208,1.58719-0.6597,2.38182a1.44978,1.44978,0,0,1-1.69781,1.30684q-5.01381.001-10.0276,0.00774c-0.26514.00078-.35906-0.024-0.27557-0.32047q1.28836-4.57509,2.55345-9.15671a0.36023,0.36023,0,0,1,.411-0.31677c3.44208,0.00877,6.88419.00578,10.32628,0.01107a0.69281,0.69281,0,0,1,.77757.95708c-0.25922,1.01889-.54343,2.03182-0.83862,3.041A1.45785,1.45785,0,0,1,19.73753,30.03964ZM15.12368,27.05c-1.06693,0-2.134.00846-3.20071-.00548a0.40889,0.40889,0,0,0-.48821.38925,11.04245,11.04245,0,0,1-.34822,1.22941c-0.08838.27546-.075,0.41829,0.28074,0.4164,2.148-.01143,4.29613-0.00112,6.44417-0.00916a1.276,1.276,0,0,0,1.27164-1.05108,0.69377,0.69377,0,0,0-.75864-0.96787C17.25754,27.04821,16.1906,27.05055,15.12368,27.05Zm-1.62121,5.96193q1.57688,0,3.15375.00013a1.299,1.299,0,0,0,1.17761-.63957c0.43444-.70431.14072-1.38892-0.60366-1.39178-2.14509-.00824-4.29023,0-6.43532-0.00752a0.372,0.372,0,0,0-.42826.30959c-0.1124.43989-.214,0.88488-0.36511,1.31182-0.13524.3821,0.02117,0.42549,0.34731,0.42128C11.39986,33.0023,12.45122,33.0108,13.50247,33.01189Z" style="fill: #707174;"/><path class="cls-1" d="M47.923,30.41069c-0.32758.2912-.65619,0.5748-0.9754,0.86861q-1.83511,1.689-3.66227,3.38668c-0.2036.19009-.30683,0.22113-0.46587-0.05812C41.91926,33.02736,41,31.45771,40.08611,29.885a0.92874,0.92874,0,0,0-.09975-0.11477,1.17014,1.17014,0,0,0-.24655.61055q-0.5745,2.05231-1.12095,4.11239a0.43338,0.43338,0,0,1-.51605.41035c-0.41-.03186-0.82437-0.01064-1.23677-0.00541-0.19047.00241-.295-0.02522-0.22855-0.265Q37.924,29.99087,39.199,25.34543a0.41228,0.41228,0,0,1,.07341-0.09234,1.6197,1.6197,0,0,1,.393.53357q1.73489,2.88568,3.4607,5.77683c0.25855,0.432.25151,0.42268,0.64,0.09122Q46.89488,28.985,50.031,26.32388c0.41915-.35652.83753-0.714,1.29513-1.10412a0.95611,0.95611,0,0,1-.10193.60458C50.43194,28.73042,49.62632,31.63286,48.838,34.54a0.39341,0.39341,0,0,1-.4635.36259,11.05087,11.05087,0,0,0-1.19415-.00133c-0.34146.01911-.36815-0.10672-0.28493-0.39957,0.36112-1.27078.70228-2.54722,1.051-3.82153A0.23455,0.23455,0,0,0,47.923,30.41069Z" style="fill: #707174;"/><path class="cls-1" d="M27.86743,29.06736c1.12359-.00027,2.24779-0.02145,3.37043.0111a0.53357,0.53357,0,0,0,.60592-0.49416c0.26325-1.00257.54542-2.00039,0.79262-3.00684a0.4766,0.4766,0,0,1,.581-0.44713,8.04437,8.04437,0,0,0,1.1085.00085c0.29879-.01521.36745,0.07152,0.2838,0.36827-0.42407,1.50447-.82962,3.01415-1.24133,4.5221-0.39647,1.45213-.8016,2.902-1.18266,4.35817a0.56017,0.56017,0,0,1-.69254.53126,6.1329,6.1329,0,0,0-1.06531-.00422c-0.28574.01294-.33329-0.08073-0.25506-0.34957,0.30566-1.05042.58368-2.10885,0.88595-3.16029,0.08849-.30782.04807-0.43174-0.31467-0.42958q-3.43464.02047-6.86944,0.00144a0.47017,0.47017,0,0,0-.54233.43806c-0.2654,1.06079-.57971,2.10925-0.85653,3.16734a0.37245,0.37245,0,0,1-.44446.33289,10.13176,10.13176,0,0,0-1.194.00073c-0.41568.0287-.34721-0.18682-0.27595-0.44516Q21.23581,32.01743,21.902,29.57c0.37464-1.37049.75165-2.74036,1.11893-4.11282a0.35024,0.35024,0,0,1,.40381-0.32651c0.42561,0.02113.85362,0.01827,1.27955,0.00025,0.29644-.01254.32849,0.0971,0.25583,0.35493-0.30433,1.07993-.58209,2.16741-0.894,3.24507-0.083.28684-.01206,0.343,0.25986,0.34085C25.50643,29.06217,26.687,29.06763,27.86743,29.06736Z" style="fill: #707174;"/><path class="cls-1" d="M36.97108,25.16149q0.21316,0.00023.42631,0.00013c0.56567-.0006.56921,0.00034,0.425,0.52339q-1.18769,4.30863-2.37981,8.616c-0.17837.64333-.186,0.6413-0.84621,0.642-0.31263.00032-.62565-0.00958-0.93776,0.00319-0.28085.01149-.33616-0.08156-0.25968-0.35455q1.13162-4.03972,2.24244-8.08528a6.828,6.828,0,0,0,.22811-0.86286,0.48705,0.48705,0,0,1,.6331-0.4856A3.54009,3.54009,0,0,0,36.97108,25.16149Z" style="fill: #707174;"/><path class="cls-2" d="M52.5177,32.90606l-2.09159,1.94544-0.0683-.05408c0.23987-.88715.47643-1.77521,0.72027-2.66127q0.909-3.30343,1.82463-6.60506a0.30229,0.30229,0,0,1,.15123-0.28377c0.14467-.02492.14339,0.14282,0.1933,0.23515,0.30987,0.5732.54563,1.18527,0.90795,1.73085a24.21,24.21,0,0,0,1.17814,2.45154,0.48779,0.48779,0,0,1-.14448.68481C54.28772,31.19028,53.4064,32.05212,52.5177,32.90606Z" style="fill: #f07a25;"/><path class="cls-3" d="M52.5177,32.90606c0.88869-.85394,1.77-1.71579,2.67114-2.55639a0.48779,0.48779,0,0,0,.14448-0.68481,24.21,24.21,0,0,1-1.17814-2.45154l0.62238-2.09244c0.25781,0.49945.47276,0.90757,0.68023,1.31945,0.52373,1.03977,1.03268,2.08719,1.572,3.11878a0.6045,0.6045,0,0,1-.17036.86127C55.37822,31.7903,53.929,33.19477,52.467,34.58551a0.77563,0.77563,0,0,1-.36391.26369A13.18158,13.18158,0,0,0,52.5177,32.90606Z" style="fill: #0c8d48;"/><path class="cls-1" d="M35.73254,36.153a0.18576,0.18576,0,0,1-.19707-0.05815C35.62105,36.04687,35.69482,36.03886,35.73254,36.153Z" style="fill: #707174;"/><path class="cls-4" d="M15.12368,27.05026c1.06693,0.0003,2.13386-.002,3.20078.00118a0.69377,0.69377,0,0,1,.75864.96787,1.276,1.276,0,0,1-1.27164,1.05108c-2.148.008-4.29616-.00227-6.44417,0.00916-0.35572.00189-.36912-0.14094-0.28074-0.4164a11.04245,11.04245,0,0,0,.34822-1.22941,0.40889,0.40889,0,0,1,.48821-0.38925C12.98971,27.05842,14.05675,27.05,15.12368,27.05026Z" style="fill: #f8f8f8;"/><path class="cls-4" d="M13.50247,33.01135c-1.05125-.00054-2.10261-0.009-3.15368.00451-0.32613.00421-.48254-0.03918-0.34731-0.42128,0.15111-.42694.25271-0.87194,0.36511-1.31182a0.372,0.372,0,0,1,.42826-0.30959c2.14509,0.00752,4.29024-.00072,6.43532.00752,0.74437,0.00286,1.03809.68746,0.60366,1.39178a1.299,1.299,0,0,1-1.17761.63957Q15.07934,33.01139,13.50247,33.01135Z" style="fill: #f8f8f8;"/><path class="cls-1" d="M7.19824,36.05762a0.06073,0.06073,0,0,1,.05371-0.042H7.75586a0.31127,0.31127,0,0,1,.3457.4043,0.61135,0.61135,0,0,1-.3418.34668,0.281,0.281,0,0,1,.18262.35645,0.63094,0.63094,0,0,1-.60059.42188H6.80957a0.0306,0.0306,0,0,1-.0293-0.042ZM7.3916,37.28711a0.28182,0.28182,0,0,0,.25586-0.19922,0.1532,0.1532,0,0,0-.16992-0.18945H7.23828l-0.1123.38867H7.3916Zm0.15234-.62891a0.26877,0.26877,0,0,0,.24512-0.19727,0.13118,0.13118,0,0,0-.13477-0.18555H7.41895l-0.11133.38281H7.54395Z" style="fill: #707174;"/><path class="cls-1" d="M9.1416,36.05762a0.063,0.063,0,0,1,.05371-0.042H9.40039a0.02976,0.02976,0,0,1,.02832.042l-0.167.57813h0.7168l0.167-.57812a0.06091,0.06091,0,0,1,.05469-0.042h0.20215a0.03046,0.03046,0,0,1,.02832.042l-0.418,1.44531a0.06058,0.06058,0,0,1-.05273.042H9.75781a0.03077,0.03077,0,0,1-.03027-0.042l0.1748-.60254H9.18555l-0.1748.60254a0.05846,0.05846,0,0,1-.05273.042H8.75293a0.03136,0.03136,0,0,1-.0293-0.042Z" style="fill: #707174;"/><path class="cls-1" d="M10.80371,37.4873l1.1084-1.46875a0.055,0.055,0,0,1,.04395-0.02441h0.02344a0.02569,0.02569,0,0,1,.0293.02441l0.252,1.46875a0.05345,0.05345,0,0,1-.05469.05762H12.01563a0.04405,0.04405,0,0,1-.05078-0.04395l-0.04-.23633H11.2666l-0.1748.23633a0.09353,0.09353,0,0,1-.07617.04395H10.82422C10.792,37.54492,10.78223,37.5166,10.80371,37.4873Zm1.084-.46387L11.80664,36.542H11.7998l-0.35352.48145H11.8877Z" style="fill: #707174;"/><path class="cls-1" d="M13.46191,36.05762a0.05866,0.05866,0,0,1,.05371-0.042h0.62793a0.34458,0.34458,0,0,1,.34375.46973,0.71224,0.71224,0,0,1-.4541.44141l0.1416,0.55371a0.05658,0.05658,0,0,1-.05664.06445H13.8877a0.02753,0.02753,0,0,1-.0293-0.01953l-0.125-.5791H13.48926l-0.16113.55664a0.06182,0.06182,0,0,1-.05371.042H13.07324a0.03043,0.03043,0,0,1-.03027-0.042ZM13.917,36.71289a0.32342,0.32342,0,0,0,.2832-0.22266,0.15776,0.15776,0,0,0-.15723-0.21191H13.68555l-0.126.43457H13.917Z" style="fill: #707174;"/><path class="cls-1" d="M14.89746,37.4873l1.1084-1.46875a0.055,0.055,0,0,1,.04395-0.02441h0.02344a0.02569,0.02569,0,0,1,.0293.02441l0.252,1.46875a0.05345,0.05345,0,0,1-.05469.05762H16.10938a0.04405,0.04405,0,0,1-.05078-0.04395l-0.04-.23633h-0.6582l-0.1748.23633a0.09353,0.09353,0,0,1-.07617.04395H14.918C14.88574,37.54492,14.876,37.5166,14.89746,37.4873Zm1.084-.46387L15.90039,36.542H15.89355L15.54,37.02344h0.44141Z" style="fill: #707174;"/><path class="cls-1" d="M17.61621,36.27832H17.28027a0.02992,0.02992,0,0,1-.0293-0.042l0.05078-.17871a0.06091,0.06091,0,0,1,.05469-0.042h0.96a0.03077,0.03077,0,0,1,.03027.042l-0.05176.17871a0.06091,0.06091,0,0,1-.05469.042H17.9043L17.5498,37.50293a0.06073,0.06073,0,0,1-.05371.042H17.292a0.0315,0.0315,0,0,1-.03027-0.042Z" style="fill: #707174;"/><path class="cls-1" d="M20.23926,36.05762a0.06073,0.06073,0,0,1,.05371-0.042h0.2041a0.031,0.031,0,0,1,.0293.042l-0.418,1.44531a0.06182,0.06182,0,0,1-.05371.042h-0.2041a0.03112,0.03112,0,0,1-.03027-0.042Z" style="fill: #707174;"/><path class="cls-1" d="M21.52344,36.0332a0.05823,0.05823,0,0,1,.05371-0.03906h0.05469L22.26563,36.959h0.002l0.26074-.90137a0.06091,0.06091,0,0,1,.05469-0.042h0.20215a0.03046,0.03046,0,0,1,.02832.042l-0.4248,1.46875a0.05822,0.05822,0,0,1-.05273.04H22.2832l-0.62793-1.002h-0.002l-0.27246.93848a0.05967,0.05967,0,0,1-.05371.042H21.12793a0.03112,0.03112,0,0,1-.03027-0.042Z" style="fill: #707174;"/><path class="cls-1" d="M23.94238,36.27832H23.60645a0.02992,0.02992,0,0,1-.0293-0.042l0.05078-.17871a0.06091,0.06091,0,0,1,.05469-0.042h0.96a0.03077,0.03077,0,0,1,.03027.042l-0.05176.17871a0.06091,0.06091,0,0,1-.05469.042H24.23047L23.876,37.50293a0.06073,0.06073,0,0,1-.05371.042h-0.2041a0.0315,0.0315,0,0,1-.03027-0.042Z" style="fill: #707174;"/><path class="cls-1" d="M25.48926,36.05762a0.06073,0.06073,0,0,1,.05371-0.042H26.4375a0.03077,0.03077,0,0,1,.03027.042l-0.05176.17871a0.06091,0.06091,0,0,1-.05469.042H25.71094l-0.10352.35742h0.543a0.0319,0.0319,0,0,1,.03027.042l-0.05273.18164a0.05906,0.05906,0,0,1-.05371.041h-0.543l-0.11133.38281h0.65039a0.0303,0.0303,0,0,1,.03027.041l-0.05176.17871a0.05967,0.05967,0,0,1-.05371.042H25.10059a0.0306,0.0306,0,0,1-.0293-0.042Z" style="fill: #707174;"/><path class="cls-1" d="M27.36816,36.05762a0.06073,0.06073,0,0,1,.05371-0.042h0.62891a0.34406,0.34406,0,0,1,.34277.46973,0.71358,0.71358,0,0,1-.45215.44141L28.082,37.48047a0.05586,0.05586,0,0,1-.05566.06445H27.79492a0.0298,0.0298,0,0,1-.03027-0.01953l-0.124-.5791H27.39648l-0.16113.55664a0.06058,0.06058,0,0,1-.05273.042H26.97949a0.0306,0.0306,0,0,1-.0293-0.042Zm0.457,0.65527a0.32205,0.32205,0,0,0,.28125-0.22266,0.15723,0.15723,0,0,0-.15625-0.21191H27.5918l-0.126.43457H27.8252Z" style="fill: #707174;"/><path class="cls-1" d="M29.41895,36.05762a0.06073,0.06073,0,0,1,.05371-0.042h0.89453a0.03077,0.03077,0,0,1,.03027.042l-0.05176.17871a0.06091,0.06091,0,0,1-.05469.042H29.64063l-0.11816.41016h0.543a0.031,0.031,0,0,1,.0293.042l-0.05176.17871a0.06182,0.06182,0,0,1-.05371.042h-0.543l-0.16016.55176a0.06058,0.06058,0,0,1-.05273.042H29.03027a0.0306,0.0306,0,0,1-.0293-0.042Z" style="fill: #707174;"/><path class="cls-1" d="M30.57715,37.4873l1.1084-1.46875a0.055,0.055,0,0,1,.04395-0.02441h0.02344a0.02569,0.02569,0,0,1,.0293.02441l0.252,1.46875a0.05345,0.05345,0,0,1-.05469.05762H31.78906a0.04405,0.04405,0,0,1-.05078-0.04395l-0.04-.23633H31.04l-0.1748.23633a0.09353,0.09353,0,0,1-.07617.04395H30.59766C30.56543,37.54492,30.55566,37.5166,30.57715,37.4873Zm1.084-.46387L31.58008,36.542H31.57324l-0.35352.48145h0.44141Z" style="fill: #707174;"/><path class="cls-1" d="M33.92285,35.99414a0.56086,0.56086,0,0,1,.47363.20313,0.04378,0.04378,0,0,1-.01562.06152l-0.17285.13672a0.03675,0.03675,0,0,1-.05664,0,0.38907,0.38907,0,0,0-.30078-0.12891,0.71361,0.71361,0,0,0-.63672.50977,0.35978,0.35978,0,0,0,.3457.50391,0.68641,0.68641,0,0,0,.37207-0.124,0.041,0.041,0,0,1,.05566,0L34.083,37.2959a0.04579,0.04579,0,0,1-.01953.05859,0.99033,0.99033,0,0,1-.5957.21191,0.56983,0.56983,0,0,1-.56543-0.78418A1.1324,1.1324,0,0,1,33.92285,35.99414Z" style="fill: #707174;"/><path class="cls-1" d="M35.31348,36.05762a0.06073,0.06073,0,0,1,.05371-0.042h0.89453a0.03077,0.03077,0,0,1,.03027.042l-0.05176.17871a0.06091,0.06091,0,0,1-.05469.042H35.53516l-0.10352.35742h0.543a0.0319,0.0319,0,0,1,.03027.042l-0.05273.18164a0.05906,0.05906,0,0,1-.05371.041h-0.543l-0.11133.38281h0.65039a0.0303,0.0303,0,0,1,.03027.041l-0.05176.17871a0.05967,0.05967,0,0,1-.05371.042H34.9248a0.0306,0.0306,0,0,1-.0293-0.042Z" style="fill: #707174;"/><path class="cls-1" d="M38.26855,36.05762a0.06073,0.06073,0,0,1,.05371-0.042H39.2168a0.03077,0.03077,0,0,1,.03027.042l-0.05176.17871a0.06091,0.06091,0,0,1-.05469.042H38.49023l-0.11816.41016h0.543a0.031,0.031,0,0,1,.0293.042l-0.05176.17871a0.06182,0.06182,0,0,1-.05371.042h-0.543l-0.16016.55176a0.06058,0.06058,0,0,1-.05273.042H37.87988a0.0306,0.0306,0,0,1-.0293-0.042Z" style="fill: #707174;"/><path class="cls-1" d="M40.792,35.99414a0.572,0.572,0,0,1,.56348.78809,1.1271,1.1271,0,0,1-1.01855.78418,0.5678,0.5678,0,0,1-.56152-0.78418A1.12751,1.12751,0,0,1,40.792,35.99414Zm-0.373,1.28906a0.72807,0.72807,0,0,0,.65039-0.501A0.36837,0.36837,0,0,0,40.71,36.27832a0.7275,0.7275,0,0,0-.64844.50391A0.3648,0.3648,0,0,0,40.41895,37.2832Z" style="fill: #707174;"/><path class="cls-1" d="M42.44043,36.05762a0.05866,0.05866,0,0,1,.05371-0.042h0.62793a0.34458,0.34458,0,0,1,.34375.46973,0.71224,0.71224,0,0,1-.4541.44141l0.1416,0.55371a0.05658,0.05658,0,0,1-.05664.06445H42.86621a0.02753,0.02753,0,0,1-.0293-0.01953l-0.125-.5791H42.46777l-0.16113.55664a0.06182,0.06182,0,0,1-.05371.042H42.05176a0.03043,0.03043,0,0,1-.03027-0.042Zm0.45508,0.65527a0.32342,0.32342,0,0,0,.2832-0.22266,0.15776,0.15776,0,0,0-.15723-0.21191H42.66406l-0.126.43457h0.35742Z" style="fill: #707174;"/><path class="cls-1" d="M45.73438,36.02734a0.05108,0.05108,0,0,1,.0498-0.0332h0.03516a0.02777,0.02777,0,0,1,.03027.02148l0.18457,1.03125H46.042l0.78027-1.03125a0.05505,0.05505,0,0,1,.04395-0.02148h0.03516a0.02631,0.02631,0,0,1,.03027.0332l-0.165,1.4668a0.05251,0.05251,0,0,1-.05469.05078H46.5127a0.03413,0.03413,0,0,1-.0332-0.0332l0.11035-.82715H46.583l-0.63281.8584a0.0529,0.0529,0,0,1-.04492.02344H45.86621A0.02883,0.02883,0,0,1,45.835,37.543l-0.13965-.8584H45.68945l-0.36816.82715a0.06081,0.06081,0,0,1-.04883.0332H45.0752c-0.02832,0-.041-0.01953-0.02734-0.05078Z" style="fill: #707174;"/><path class="cls-1" d="M48.7666,35.99414a0.57152,0.57152,0,0,1,.5625.78809,1.1271,1.1271,0,0,1-1.01855.78418,0.5678,0.5678,0,0,1-.56152-0.78418A1.12873,1.12873,0,0,1,48.7666,35.99414Zm-0.374,1.28906a0.72826,0.72826,0,0,0,.65137-0.501,0.36853,0.36853,0,0,0-.36035-0.50391,0.72644,0.72644,0,0,0-.64844.50391A0.36446,0.36446,0,0,0,48.39258,37.2832Z" style="fill: #707174;"/><path class="cls-1" d="M50.41992,36.0332a0.05823,0.05823,0,0,1,.05371-0.03906h0.05469L51.16211,36.959h0.002l0.26074-.90137a0.06091,0.06091,0,0,1,.05469-0.042h0.20215a0.03046,0.03046,0,0,1,.02832.042l-0.4248,1.46875a0.05822,0.05822,0,0,1-.05273.04H51.17969l-0.62793-1.002h-0.002l-0.27246.93848a0.05967,0.05967,0,0,1-.05371.042H50.02441a0.03112,0.03112,0,0,1-.03027-0.042Z" style="fill: #707174;"/><path class="cls-1" d="M52.69824,36.05762a0.05866,0.05866,0,0,1,.05371-0.042h0.89355a0.02992,0.02992,0,0,1,.0293.042l-0.05078.17871a0.06091,0.06091,0,0,1-.05469.042H52.91895l-0.10352.35742h0.543a0.03112,0.03112,0,0,1,.03027.042l-0.05273.18164a0.05809,0.05809,0,0,1-.05371.041h-0.543l-0.11133.38281h0.65039a0.03,0.03,0,0,1,.03027.041l-0.05176.17871a0.05866,0.05866,0,0,1-.05371.042H52.30957a0.03043,0.03043,0,0,1-.03027-0.042Z" style="fill: #707174;"/><path class="cls-1" d="M54.65332,36.80859l-0.29-.72949a0.05447,0.05447,0,0,1,.05371-0.06348H54.6416a0.03143,0.03143,0,0,1,.0293.01953L54.877,36.53809l0.49707-.50293a0.06779,0.06779,0,0,1,.041-0.01953h0.22559c0.03516,0,.042.03613,0.0166,0.06348l-0.7168.72754-0.20215.69629a0.063,0.063,0,0,1-.05371.042H54.48242a0.03077,0.03077,0,0,1-.03027-0.042Z" style="fill: #707174;"/>
	<metadata>
		<rdf:RDF xmlns:rdf="http://www.w3.org/1999/02/22-rdf-syntax-ns#" xmlns:rdfs="http://www.w3.org/2000/01/rdf-schema#" xmlns:dc="http://purl.org/dc/elements/1.1/">
			<rdf:Description about="https://iconscout.com/legal#licenses" dc:title="BhimLogos-02" dc:description="BhimLogos-02" dc:publisher="Iconscout" dc:date="2017-01-02" dc:format="image/svg+xml" dc:language="en">
				<dc:creator>
					<rdf:Bag>
						<rdf:li>Iconscout Store</rdf:li>
					</rdf:Bag>
				</dc:creator>
			</rdf:Description>
		</rdf:RDF>
    </metadata></svg>
