<svg id="Layer_1" data-name="Layer 1" xmlns="http://www.w3.org/2000/svg" viewBox="0 0 30.02 30"><defs><style>.cls-1{fill:#fff;}.cls-2{fill:#6e7bf2;}.cls-3{fill:#4285f4;}.cls-4{fill:#34a853;}.cls-5{fill:#fbbc05;}.cls-6{fill:#eb4335;}</style></defs><circle class="cls-1" cx="15" cy="15" r="15"/><path class="cls-2" d="M51,65.2A15,15,0,0,1,43.11,63l10-27.61A15,15,0,0,1,51,65.2Z" transform="translate(-36 -35.2)"/><path class="cls-3" d="M45.91,50.13a2.74,2.74,0,0,0-.08-.75H42.38v1.37h2a1.82,1.82,0,0,1-.75,1.19V52l1.09.84h.08a3.57,3.57,0,0,0,1.09-2.7" transform="translate(-36 -35.2)"/><path class="cls-4" d="M42.38,53.73a3.52,3.52,0,0,0,2.44-.89l-1.16-.9a2.25,2.25,0,0,1-3.37-1.16h0l-1.14.88v0a3.65,3.65,0,0,0,3.28,2" transform="translate(-36 -35.2)"/><path class="cls-5" d="M40.29,50.78a2.24,2.24,0,0,1-.12-.73,2.33,2.33,0,0,1,.12-.73v0l-1.15-.9,0,0a3.69,3.69,0,0,0,0,3.3l1.19-.92" transform="translate(-36 -35.2)"/><path class="cls-6" d="M42.38,47.8a2,2,0,0,1,1.42.55l1-1a3.55,3.55,0,0,0-2.46-.95,3.65,3.65,0,0,0-3.28,2l1.18.92a2.24,2.24,0,0,1,2.1-1.53" transform="translate(-36 -35.2)"/><path class="cls-1" d="M51.7,50.46v2.67h-.86v-6.6h2.27a2.12,2.12,0,0,1,1.47.57,1.91,1.91,0,0,1,.11,2.69h0l-.11.11a2.11,2.11,0,0,1-1.47.56Zm0-3.11v2.3h1.43A1.14,1.14,0,0,0,54,47.73h0l0,0a1.06,1.06,0,0,0-.84-.35Zm5.46,1.12a2.13,2.13,0,0,1,1.49.5,1.75,1.75,0,0,1,.55,1.38v2.79h-.82v-.63h0a1.64,1.64,0,0,1-1.42.77,1.79,1.79,0,0,1-1.25-.44,1.39,1.39,0,0,1-.51-1.11,1.37,1.37,0,0,1,.53-1.11,2.29,2.29,0,0,1,1.43-.42,2.57,2.57,0,0,1,1.25.28v-.19a.94.94,0,0,0-.35-.75,1.15,1.15,0,0,0-.82-.31,1.31,1.31,0,0,0-1.14.6l-.75-.47a2.09,2.09,0,0,1,1.84-.89Zm-1.11,3.28a.69.69,0,0,0,.28.56,1.14,1.14,0,0,0,.67.22,1.39,1.39,0,0,0,1-.4,1.21,1.21,0,0,0,.42-.93,1.76,1.76,0,0,0-1.11-.32,1.48,1.48,0,0,0-.87.25.77.77,0,0,0-.35.62Zm7.84-3.13L61,55.12h-.89l1.06-2.27-1.87-4.23h.92l1.36,3.24h0L63,48.62Z" transform="translate(-36 -35.2)"/></svg>