<svg id="Layer_1" data-name="Layer 1" xmlns="http://www.w3.org/2000/svg" viewBox="0 0 93.05 30"><defs><style>.cls-1{fill:#02b9ef;}.cls-2{fill:#06306f;}</style></defs><path class="cls-1" d="M76.6,42.84l.77-.61a5.67,5.67,0,0,1,8.39.67c.23.27.35.29.58.06s.33-.31.48-.48a5.83,5.83,0,0,1,10,4.13c0,5.53,0,11,0,16.55a3,3,0,0,1-3.16,3.2,22.25,22.25,0,0,0-2.31,0c-.79.07-1-.18-1-1,0-5.39,0-10.78,0-16.17v-.67c0-1.25-.52-1.77-1.71-1.83a1.76,1.76,0,0,0-1.95,1.69c0,.25,0,.52,0,.77v14a2.91,2.91,0,0,1-3.21,3.21c-1,0-2.44.46-3-.21s-.17-1.95-.17-3V48.83c0-1.7-1.1-2.56-2.52-2a1.92,1.92,0,0,0-1.18,2c0,4.46,0,8.91,0,13.37v1.06a2.94,2.94,0,0,1-3.1,3.06c-.77,0-1.54-.06-2.31,0s-1.07-.16-1.05-1c0-7.56,0-15.13,0-22.71,0-.33,0-.63,0-1s.14-.56.56-.56c1.77,0,3.52,0,5.3,0,.44,0,.65.12.61.6A7.63,7.63,0,0,0,76.6,42.84Z" transform="translate(-3.76 -36.51)"/><path class="cls-2" d="M35.8,53.27v7.89c0,3.43-1.81,5.2-5.23,5.22-1.5,0-3,0-4.53,0a5.21,5.21,0,0,1-5.42-5.1,59.63,59.63,0,0,1,0-6.55,5.54,5.54,0,0,1,5.7-5.35c.82,0,1.67,0,2.5,0s1.11-.48,1.09-1.25-.34-1.11-1.11-1.07-1.73,0-2.6,0a3,3,0,0,1-3.27-3.28c0-.84-.39-2,.17-2.48s1.58-.15,2.41-.15c2.15,0,4.29,0,6.44,0A3.69,3.69,0,0,1,35.8,45C35.82,47.75,35.8,50.52,35.8,53.27Zm-5.89,4.37v-1c0-2,0-2-2-1.89a1.42,1.42,0,0,0-1.54,1.56c0,.81,0,1.6,0,2.41,0,1.38.64,1.75,2.64,1.81,1.48,0,.73-1,.86-1.58A10.14,10.14,0,0,0,29.91,57.64Z" transform="translate(-3.76 -36.51)"/><path class="cls-2" d="M52.93,51.17c0,2.95,0,5.91,0,8.86,0,2.27-.58,4.33-2.77,5.54a6.23,6.23,0,0,1-2.85.77c-2.21,0-4.43,0-6.64,0-.54,0-.65-.19-.63-.68,0-.8,0-1.59,0-2.4a2.8,2.8,0,0,1,2.75-2.77c1,0,2,0,3,0,.81,0,1.25-.33,1.25-1.2s-.42-1.19-1.23-1.21a15.48,15.48,0,0,1-4-.23,5.35,5.35,0,0,1-4-4.94c-.12-3.76,0-7.51-.06-11.26,0-.43.13-.56.56-.54,1.57,0,3.13,0,4.71,0,.69,0,.6.36.6.79V50.4c0,1.24.57,1.89,1.65,1.93,1.27,0,1.83-.48,1.83-1.77,0-2.85,0-5.72,0-8.57,0-.67.17-.86.85-.84,1.4.06,2.83.08,4.23,0,.77,0,.89.25.87.92C52.91,45.09,52.93,48.13,52.93,51.17Z" transform="translate(-3.76 -36.51)"/><path class="cls-2" d="M3.89,55.54V46.11a4.58,4.58,0,0,1,5-5,33.83,33.83,0,0,1,6,.15,5,5,0,0,1,4.2,5.12c0,2.79,0,5.58,0,8.37,0,3.51-2.06,5.64-5.56,5.74-1.06,0-2.12,0-3.18,0-.48,0-.69.13-.67.65,0,.77,0,1.54,0,2.31a2.82,2.82,0,0,1-2.85,2.87c-1,0-2.18.4-2.79-.16s-.16-1.75-.18-2.67C3.88,60.87,3.89,58.2,3.89,55.54Zm5.82-4.71v1.83c0,2.17,0,2.17,2.17,2a1.34,1.34,0,0,0,1.41-1.48c0-1.08,0-2.18,0-3.26.12-3.11-.46-2.81-3-2.82-.46,0-.61.13-.61.59C9.73,48.71,9.71,49.77,9.71,50.83Z" transform="translate(-3.76 -36.51)"/><path class="cls-1" d="M58.38,55.58c0-2.56,0-5.14,0-7.7,0-.59-.13-.84-.78-.82-.87,0-2,.28-2.51-.14s-.13-1.75-.21-2.67v-.2c0-.9-.29-2,.1-2.63s1.56-.25,2.38-.46a7,7,0,0,0,3.87-2.68,4.44,4.44,0,0,1,2.68-1.73c.59-.12,1,0,.92.73-.06,1.08,0,2.17,0,3.27,0,.46.16.62.62.6.77,0,1.54,0,2.31,0,.46,0,.61.15.59.61,0,1.58,0,3.14,0,4.72,0,.44-.11.67-.59.62a1.41,1.41,0,0,0-.29,0c-.85.07-2-.39-2.46.19s-.16,1.65-.16,2.52c0,5.23,0,10.45,0,15.68,0,.73-.19,1-.92.91s-1.41,0-2.12,0a3.37,3.37,0,0,1-3.44-3.56Z" transform="translate(-3.76 -36.51)"/></svg>