<svg id="Layer_1" data-name="Layer 1" xmlns="http://www.w3.org/2000/svg" xmlns:xlink="http://www.w3.org/1999/xlink" viewBox="0 0 86.35 23.46"><defs><style>.cls-1{fill:none;}.cls-2{clip-path:url(#clip-path);}.cls-3{fill:#5f259f;}</style><clipPath id="clip-path" transform="translate(-6.85 -37.48)"><rect class="cls-1" x="-12.06" y="14.21" width="124.13" height="69.79"/></clipPath></defs><g class="cls-2"><path class="cls-3" d="M18.16,60.94c-.35,0-.7-.06-1.06-.11A11.54,11.54,0,0,1,11,58.14a11.68,11.68,0,0,1-3.77-6,11.47,11.47,0,0,1-.34-3.87,11.35,11.35,0,0,1,2.32-6.13,11.4,11.4,0,0,1,7.63-4.55,11.4,11.4,0,0,1,9.23,2.55,11.72,11.72,0,0,1,1.45,16.62,11.43,11.43,0,0,1-7.31,4c-.37.06-.75.08-1.12.12ZM16,45.4H13.16c-.25,0-.34.07-.36.32a3,3,0,0,0,0,.73.83.83,0,0,0,.83.73h.66c.27,0,.27,0,.27.27v3a4.4,4.4,0,0,0,.16,1.2,2.9,2.9,0,0,0,2,2.2,4.57,4.57,0,0,0,2.76-.09c.21-.07.22-.07.22.16,0,.62,0,1.25,0,1.88a1,1,0,0,0,1,1h.93a.38.38,0,0,0,.39-.37v-9c0-.33,0-.33.32-.33h1.14c.28,0,.37-.09.37-.38v-.56a.82.82,0,0,0-.87-.85H21.67a.34.34,0,0,1-.31-.14l-.52-.59q-1.45-1.7-2.94-3.38a1.19,1.19,0,0,0-1-.46,5.87,5.87,0,0,0-1.7.46.25.25,0,0,0-.07.41l.13.13,3.62,3.44s.13.08.11.14-.12,0-.19,0H16M93.2,53a.56.56,0,0,1-.55.28H88.93c-.18,0-.26,0-.26.24s0,.28,0,.43a1.12,1.12,0,0,0,1.12,1.19,4,4,0,0,0,2-.43c.45-.21.53-.18.81.24a1.06,1.06,0,0,1,.23,1,.94.94,0,0,1-.44.52,5.26,5.26,0,0,1-3,.55,3.81,3.81,0,0,1-1.44-.39A2.86,2.86,0,0,1,86.25,54c0-1,0-1.93,0-2.9a3,3,0,0,1,2.82-3,4.84,4.84,0,0,1,1.78.06,2.83,2.83,0,0,1,2.33,2.52.8.8,0,0,0,0,.15Zm-3.35-1.12h1c.13,0,.18,0,.18-.18v-.6a1.1,1.1,0,0,0-1-1.14,1.13,1.13,0,0,0-1.41,1.16v.55c0,.18.06.21.22.21h1M38,55.11v1.31a.43.43,0,0,1-.45.48H36.14a.43.43,0,0,1-.45-.43,1.62,1.62,0,0,1,0-.22V46.31c0-.09,0-.17,0-.26a.58.58,0,0,1,.43-.51A9.13,9.13,0,0,1,39.27,45a4.34,4.34,0,0,1,2.37.72,3.2,3.2,0,0,1,1.42,2.31,10.58,10.58,0,0,1,0,2.92,3.39,3.39,0,0,1-3,2.8,4,4,0,0,1-1.92-.15c-.14,0-.16,0-.16.13v1.36m.07-5.76c0,.65,0,1.3,0,1.94a.3.3,0,0,0,.21.31,2.14,2.14,0,0,0,1.06.14,1.48,1.48,0,0,0,1.45-1.52,10.86,10.86,0,0,0-.06-1.89,1.41,1.41,0,0,0-.79-1.13,2.35,2.35,0,0,0-1.71-.05c-.13,0-.15.13-.15.24v2M78,51.26V46.31c0-.52.11-.67.6-.83A9.22,9.22,0,0,1,81.52,45a4.18,4.18,0,0,1,2.65.89,3.24,3.24,0,0,1,1.2,2.17,10.86,10.86,0,0,1,0,2.79,3.33,3.33,0,0,1-2.76,2.86,4,4,0,0,1-2.1-.09c-.17-.06-.2,0-.2.15v2.55c0,.4-.16.56-.55.56h-1.2c-.39,0-.57-.16-.58-.57V51.26Zm2.4-1.91v2a.26.26,0,0,0,.18.28,2,2,0,0,0,1.06.15,1.48,1.48,0,0,0,1.47-1.52V49a3.52,3.52,0,0,0-.16-1,1.16,1.16,0,0,0-.64-.76,2.35,2.35,0,0,0-1.71-.11.25.25,0,0,0-.21.27h0c0,.65,0,1.3,0,2m-36,1.57V45.51c0-.41.15-.57.56-.56a5.41,5.41,0,0,1,.9,0,1,1,0,0,1,.84.88c.06.6,0,1.21,0,1.81,0,.16,0,.32,0,.48s0,.2.19.16a5.72,5.72,0,0,1,1.25-.2,2.92,2.92,0,0,1,3.2,2.36,4.51,4.51,0,0,1,.13,1.09v4.81c0,.37-.16.53-.53.54h-.71a1.08,1.08,0,0,1-1.09-1.07v0c0-1.35,0-2.71,0-4.07a2.63,2.63,0,0,0-.09-.79,1,1,0,0,0-.89-.75,3.24,3.24,0,0,0-1.24.08.25.25,0,0,0-.22.3V56.4a.47.47,0,0,1-.53.5H44.84c-.35,0-.51-.17-.51-.52V50.93m8.32,1.53c0-.44,0-1,0-1.56a2.86,2.86,0,0,1,2.2-2.6,4.78,4.78,0,0,1,3.19.1A2.87,2.87,0,0,1,60,51c.07.94,0,1.87,0,2.8a3.07,3.07,0,0,1-1,2.43,3.58,3.58,0,0,1-1.94.79,5.07,5.07,0,0,1-2.29-.21A3,3,0,0,1,52.65,54c0-.46,0-.91,0-1.49m2.45,0c0,.51,0,.91,0,1.32a1.09,1.09,0,0,0,1,1.21c.81.1,1.52-.18,1.55-1.18,0-.83,0-1.65,0-2.48a1.14,1.14,0,0,0-1-1.22,2,2,0,0,0-.54,0,1.06,1.06,0,0,0-1.06,1c-.07.5,0,1,0,1.39m19.11.81H72.27c-.16,0-.22.06-.23.21a3.33,3.33,0,0,0,0,.63,1.14,1.14,0,0,0,1.09,1,3.83,3.83,0,0,0,2-.41c.49-.24.59-.21.88.25a1,1,0,0,1,.18,1,.76.76,0,0,1-.34.41,5,5,0,0,1-4.58.17,2.68,2.68,0,0,1-1.56-2.35,23.69,23.69,0,0,1,0-3.37,2.89,2.89,0,0,1,2.18-2.63,4.72,4.72,0,0,1,2.66,0,2.75,2.75,0,0,1,2,2.37,12.07,12.07,0,0,1,.06,2.25c0,.32-.18.46-.51.46H74.2m-1-1.4h1.06c.12,0,.18,0,.17-.16s0-.39,0-.58a1.13,1.13,0,0,0-1-1.17A1.12,1.12,0,0,0,72,51a6.26,6.26,0,0,0,0,.75c0,.13,0,.17.17.17h1m-11.86.87V49.27a.6.6,0,0,1,.5-.68,9.2,9.2,0,0,1,2.9-.5,3.83,3.83,0,0,1,2.63.82,3.16,3.16,0,0,1,1,2,6.62,6.62,0,0,1,0,.77v4.69c0,.4-.15.55-.56.55a6.91,6.91,0,0,1-.91,0,1,1,0,0,1-.84-1v-4a3.78,3.78,0,0,0-.07-.89A1.09,1.09,0,0,0,65,50.1a5.35,5.35,0,0,0-1.06.07c-.18,0-.23.1-.23.28v5.94a.45.45,0,0,1-.46.43H61.79a.42.42,0,0,1-.43-.47V52.76" transform="translate(-6.85 -37.48)"/><path class="cls-3" d="M19.74,49.5v2.07a.27.27,0,0,1-.21.3,3.23,3.23,0,0,1-1.38.17,1.33,1.33,0,0,1-1.31-1.35c-.06-.74,0-1.48,0-2.22V47.39c0-.15.05-.21.21-.21h2.5c.19,0,.22.07.22.23V49.5" transform="translate(-6.85 -37.48)"/></g></svg>