<svg id="Layer_1" data-name="Layer 1" xmlns="http://www.w3.org/2000/svg" viewBox="0 0 92.04 27.9"><defs><style>.cls-1{fill:#3c58bf;}.cls-2{fill:#293688;}.cls-3{fill:#ffbc00;}.cls-4{fill:#f7981d;}.cls-5{fill:#ed7c00;}.cls-6{fill:#051244;}</style></defs><path class="cls-1" d="M37.71,62.65l4.67-26.3h7.31l-4.53,26.3Z" transform="translate(-3.96 -35.47)"/><path class="cls-2" d="M37.71,62.65l6-26.3h6l-4.53,26.3Z" transform="translate(-3.96 -35.47)"/><path class="cls-1" d="M71.6,36.64a18.62,18.62,0,0,0-6.72-1.17c-7.3,0-12.56,3.66-12.56,8.91,0,3.95,3.65,6,6.57,7.31s3.8,2.19,3.8,3.36c0,1.75-2.34,2.63-4.38,2.63a15.9,15.9,0,0,1-7-1.46l-1-.44-1,6a23.7,23.7,0,0,0,8.33,1.46c7.74,0,12.85-3.65,12.85-9.2,0-3.07-1.89-5.41-6.28-7.31-2.63-1.31-4.23-2-4.23-3.36S61.23,41,64.15,41a13.25,13.25,0,0,1,5.55,1l.73.29Z" transform="translate(-3.96 -35.47)"/><path class="cls-2" d="M71.6,36.64a18.62,18.62,0,0,0-6.72-1.17c-7.3,0-11.25,3.66-11.25,8.91,0,3.95,2.34,6,5.26,7.31s3.8,2.19,3.8,3.36c0,1.75-2.34,2.63-4.38,2.63a15.9,15.9,0,0,1-7-1.46l-1-.44-1,6a23.7,23.7,0,0,0,8.33,1.46c7.74,0,12.85-3.65,12.85-9.2,0-3.07-1.89-5.41-6.28-7.31-2.63-1.31-4.23-2-4.23-3.36S61.23,41,64.15,41a13.25,13.25,0,0,1,5.55,1l.73.29Z" transform="translate(-3.96 -35.47)"/><path class="cls-1" d="M84.17,36.35c-1.76,0-3.07.15-3.8,1.9l-11,24.4H77.3l1.46-4.39h9.35L89,62.65h7l-6.14-26.3ZM80.81,53.88c.43-1.31,2.92-7.74,2.92-7.74s.58-1.61,1-2.63L85.19,46s1.46,6.58,1.75,8H80.81Z" transform="translate(-3.96 -35.47)"/><path class="cls-2" d="M85.92,36.35c-1.75,0-3.07.15-3.8,1.9L69.41,62.65H77.3l1.46-4.39h9.35L89,62.65h7l-6.14-26.3ZM80.81,53.88c.58-1.46,2.92-7.74,2.92-7.74s.58-1.61,1-2.63L85.19,46s1.46,6.58,1.75,8H80.81Z" transform="translate(-3.96 -35.47)"/><path class="cls-1" d="M24.27,54.76,23.54,51c-1.32-4.38-5.55-9.2-10.23-11.54l6.58,23.37h7.89L39.61,36.5H31.72Z" transform="translate(-3.96 -35.47)"/><path class="cls-2" d="M24.27,54.76,23.54,51c-1.32-4.38-5.55-9.2-10.23-11.54l6.58,23.37h7.89L39.61,36.5H33.18Z" transform="translate(-3.96 -35.47)"/><path class="cls-3" d="M4,36.35l1.32.29C14.63,38.83,21.06,44.38,23.54,51L20.91,38.54c-.44-1.75-1.75-2.19-3.36-2.19Z" transform="translate(-3.96 -35.47)"/><path class="cls-4" d="M4,36.35c9.35,2.19,17.1,7.89,19.58,14.46L21.06,40.44a3.58,3.58,0,0,0-3.51-2.78Z" transform="translate(-3.96 -35.47)"/><path class="cls-5" d="M4,36.35c9.35,2.19,17.1,7.89,19.58,14.46l-1.75-5.69c-.44-1.76-1-3.51-3.07-4.24Z" transform="translate(-3.96 -35.47)"/><path class="cls-6" d="M31.57,53.88l-5-5-2.34,5.56-.58-3.66c-1.32-4.38-5.56-9.2-10.23-11.54L20,62.65h7.89Z" transform="translate(-3.96 -35.47)"/><path class="cls-6" d="M45.16,62.65l-6.28-6.43-1.17,6.43Z" transform="translate(-3.96 -35.47)"/><path class="cls-6" d="M62,53.59c.59.58.88,1,.73,1.61,0,1.75-2.34,2.63-4.38,2.63a15.77,15.77,0,0,1-7-1.47l-1-.43-1,6a23.7,23.7,0,0,0,8.33,1.46c4.67,0,8.47-1.32,10.66-3.66Z" transform="translate(-3.96 -35.47)"/><path class="cls-6" d="M70.43,62.65H77.3l1.46-4.39h9.35L89,62.65h7L93.52,52l-8.77-8.47.44,2.34s1.46,6.57,1.75,8H80.81c.58-1.46,2.92-7.74,2.92-7.74s.58-1.61,1-2.63" transform="translate(-3.96 -35.47)"/></svg>