<svg id="Layer_1" data-name="Layer 1" xmlns="http://www.w3.org/2000/svg" viewBox="0 0 53.7 32.22"><defs><style>.cls-1{fill:#ffb600;}.cls-2{fill:#f7981d;}.cls-3{fill:#ff8500;}.cls-4{fill:#ff5050;}.cls-5{fill:#e52836;}.cls-6{fill:#cb2026;}.cls-7{fill:#fff;}.cls-8{fill:#dce5e5;}</style></defs><path class="cls-1" d="M79,49.77a16.11,16.11,0,0,1-32.22,0h0a16.11,16.11,0,1,1,32.22,0Z" transform="translate(-25.3 -33.66)"/><path class="cls-2" d="M62.89,33.66A16.15,16.15,0,0,1,79,49.77h0a16.11,16.11,0,0,1-32.22,0" transform="translate(-25.3 -33.66)"/><path class="cls-3" d="M62.89,33.66A16.15,16.15,0,0,1,79,49.77h0A16.1,16.1,0,0,1,62.89,65.88" transform="translate(-25.3 -33.66)"/><path class="cls-4" d="M41.24,33.66a16.11,16.11,0,1,0,11,28h0A14.56,14.56,0,0,0,53.85,60H50.53a18.47,18.47,0,0,1-1.19-1.61h5.71A10.79,10.79,0,0,0,56,56.67H48.4a9.88,9.88,0,0,1-.68-1.7h8.86a17,17,0,0,0,.85-5.12,22.13,22.13,0,0,0-.34-3.41H47.2a12.83,12.83,0,0,1,.43-1.7H56.5A9.69,9.69,0,0,0,55.81,43h-7.5a18,18,0,0,1,.94-1.7H55a8,8,0,0,0-1.28-1.71H50.53A14.58,14.58,0,0,1,52.15,38a15.73,15.73,0,0,0-10.83-4.17C41.32,33.66,41.32,33.66,41.24,33.66Z" transform="translate(-25.3 -33.66)"/><path class="cls-5" d="M25.3,49.77A16.11,16.11,0,0,0,52.23,61.7h0A14.56,14.56,0,0,0,53.85,60H50.53a18.47,18.47,0,0,1-1.19-1.61h5.71A10.79,10.79,0,0,0,56,56.67H48.4a9.88,9.88,0,0,1-.68-1.7h8.86a17,17,0,0,0,.85-5.12,22.13,22.13,0,0,0-.34-3.41H47.2a12.83,12.83,0,0,1,.43-1.7H56.5A9.69,9.69,0,0,0,55.81,43h-7.5a18,18,0,0,1,.94-1.7H55a8,8,0,0,0-1.28-1.71H50.53A14.58,14.58,0,0,1,52.15,38a15.73,15.73,0,0,0-10.83-4.17h-.08" transform="translate(-25.3 -33.66)"/><path class="cls-6" d="M41.41,65.88A16.25,16.25,0,0,0,52.23,61.7h0A14.56,14.56,0,0,0,53.85,60H50.53a18.47,18.47,0,0,1-1.19-1.61h5.71A10.79,10.79,0,0,0,56,56.67H48.4a9.88,9.88,0,0,1-.68-1.7h8.86a17,17,0,0,0,.85-5.12,22.13,22.13,0,0,0-.34-3.41H47.2a12.83,12.83,0,0,1,.43-1.7H56.5A9.69,9.69,0,0,0,55.81,43h-7.5a18,18,0,0,1,.94-1.7H55a8,8,0,0,0-1.28-1.71H50.53A14.58,14.58,0,0,1,52.15,38a15.73,15.73,0,0,0-10.83-4.17h-.08" transform="translate(-25.3 -33.66)"/><path class="cls-7" d="M47.12,53.86l.26-1.45a4.28,4.28,0,0,1-.43.08c-.6,0-.68-.34-.6-.51l.51-3h.94l.26-1.62H47.2l.18-1H45.67s-1,5.62-1,6.3A1.27,1.27,0,0,0,46,54.11,2.74,2.74,0,0,0,47.12,53.86Z" transform="translate(-25.3 -33.66)"/><path class="cls-7" d="M47.72,51.13a2.71,2.71,0,0,0,3,3,4.51,4.51,0,0,0,1.79-.25l.34-1.62a5.19,5.19,0,0,1-1.79.42c-1.87,0-1.53-1.36-1.53-1.36H53a11,11,0,0,0,.26-1.53,2.32,2.32,0,0,0-2.47-2.48C49,47.12,47.72,49,47.72,51.13Zm3-2.47c.94,0,.77,1.11.77,1.19H49.59C49.59,49.77,49.76,48.66,50.7,48.66Z" transform="translate(-25.3 -33.66)"/><path class="cls-7" d="M61.53,53.86,61.87,52a4.22,4.22,0,0,1-1.45.43,1.73,1.73,0,0,1-1.71-2c0-2.05,1-3.16,2.22-3.16a2.81,2.81,0,0,1,1.53.52L62.72,46a5.93,5.93,0,0,0-2-.43c-2,0-3.92,1.7-3.92,4.94,0,2.13,1,3.58,3.07,3.58A7.84,7.84,0,0,0,61.53,53.86Z" transform="translate(-25.3 -33.66)"/><path class="cls-7" d="M37.74,47.12a6,6,0,0,0-2,.34l-.26,1.45a5.08,5.08,0,0,1,1.88-.34c.59,0,1.11.09,1.11.6,0,.34-.09.43-.09.43h-.77c-1.45,0-3.07.59-3.07,2.55,0,1.54,1,1.88,1.62,1.88a2.52,2.52,0,0,0,1.79-.77l-.08.68h1.53L40,49.25A2,2,0,0,0,37.74,47.12ZM38.08,51c0,.26-.17,1.62-1.19,1.62a.67.67,0,0,1-.68-.68c0-.43.25-1,1.53-1A1.33,1.33,0,0,0,38.08,51Z" transform="translate(-25.3 -33.66)"/><path class="cls-7" d="M41.66,54a2.19,2.19,0,0,0,2.56-2.22c0-2.13-2-1.7-2-2.56,0-.42.34-.59.93-.59.26,0,1.2.08,1.2.08l.25-1.53A6.43,6.43,0,0,0,42.94,47c-1.28,0-2.55.51-2.55,2.21,0,2,2.13,1.79,2.13,2.56,0,.51-.6.6-1,.6A5.51,5.51,0,0,1,40,52.15l-.26,1.54C39.79,53.86,40.22,54,41.66,54Z" transform="translate(-25.3 -33.66)"/><path class="cls-7" d="M75.68,45.76l-.35,2.3a2.35,2.35,0,0,0-1.61-.85c-1.54,0-2.9,1.87-2.9,4.09,0,1.36.68,2.81,2.13,2.81a2.29,2.29,0,0,0,1.62-.68l-.09.6h1.71l1.28-8.19Zm-.77,4.52c0,.94-.43,2.13-1.37,2.13-.59,0-.93-.51-.93-1.37,0-1.36.59-2.21,1.36-2.21C74.57,48.83,74.91,49.25,74.91,50.28Z" transform="translate(-25.3 -33.66)"/><path class="cls-7" d="M28.45,53.94l1-6.13.18,6.13h1.19l2.21-6.13-.93,6.13h1.79l1.36-8.18H32.46l-1.71,5-.08-5H28.2l-1.37,8.18Z" transform="translate(-25.3 -33.66)"/><path class="cls-7" d="M54.88,53.94c.51-2.81.59-5.11,1.79-4.69a6.87,6.87,0,0,1,.59-2h-.34c-.76,0-1.36,1-1.36,1l.17-.94H54.11L53,54h1.88Z" transform="translate(-25.3 -33.66)"/><path class="cls-7" d="M65.45,47.12a6,6,0,0,0-2.05.34l-.25,1.45A5,5,0,0,1,65,48.57c.6,0,1.11.09,1.11.6,0,.34-.09.43-.09.43h-.76c-1.45,0-3.07.59-3.07,2.55,0,1.54,1,1.88,1.62,1.88a2.58,2.58,0,0,0,1.79-.77l-.09.68h1.54l.68-4.69A2,2,0,0,0,65.45,47.12ZM65.87,51c0,.26-.17,1.62-1.19,1.62A.67.67,0,0,1,64,51.9c0-.43.25-1,1.53-1C65.79,51,65.79,51,65.87,51Z" transform="translate(-25.3 -33.66)"/><path class="cls-7" d="M69.2,53.94c.51-2.81.59-5.11,1.79-4.69a6.87,6.87,0,0,1,.59-2h-.34c-.76,0-1.36,1-1.36,1l.17-.94H68.43L67.32,54H69.2Z" transform="translate(-25.3 -33.66)"/><path class="cls-8" d="M44.48,52.66a1.27,1.27,0,0,0,1.36,1.45,3.36,3.36,0,0,0,1.28-.25l.26-1.45a4.28,4.28,0,0,1-.43.08c-.6,0-.68-.34-.6-.51l.51-3h.94l.26-1.62H47.2l.18-1" transform="translate(-25.3 -33.66)"/><path class="cls-8" d="M48.57,51.13c0,2.39.77,3,2.13,3a4.51,4.51,0,0,0,1.79-.25l.34-1.62a5.19,5.19,0,0,1-1.79.42c-1.87,0-1.53-1.36-1.53-1.36H53a11,11,0,0,0,.26-1.53,2.32,2.32,0,0,0-2.47-2.48C49,47.12,48.57,49,48.57,51.13Zm2.13-2.47c.94,0,1.11,1.11,1.11,1.19H49.59C49.59,49.77,49.76,48.66,50.7,48.66Z" transform="translate(-25.3 -33.66)"/><path class="cls-8" d="M61.53,53.86,61.87,52a4.22,4.22,0,0,1-1.45.43,1.73,1.73,0,0,1-1.71-2c0-2.05,1-3.16,2.22-3.16a2.81,2.81,0,0,1,1.53.52L62.72,46a5.93,5.93,0,0,0-2-.43c-2,0-3.07,1.7-3.07,4.94,0,2.13.17,3.58,2.22,3.58A7.84,7.84,0,0,0,61.53,53.86Z" transform="translate(-25.3 -33.66)"/><path class="cls-8" d="M35.44,49a5.08,5.08,0,0,1,1.88-.34c.59,0,1.11.08,1.11.59,0,.35-.09.43-.09.43h-.77c-1.45,0-3.07.6-3.07,2.56a1.63,1.63,0,0,0,1.62,1.87,2.54,2.54,0,0,0,1.79-.76l-.08.68h1.53L40,49.34c0-2-1.7-2.05-2.38-2.05M38.94,51a2.8,2.8,0,0,1-2,1.62.67.67,0,0,1-.68-.68c0-.43.25-1,1.53-1A6.69,6.69,0,0,0,38.94,51Z" transform="translate(-25.3 -33.66)"/><path class="cls-8" d="M39.79,53.86a7.22,7.22,0,0,0,2,.17,2.19,2.19,0,0,0,2.56-2.22c0-2.13-2.05-1.7-2.05-2.56,0-.42.34-.59.94-.59.25,0,1.19.08,1.19.08l.26-1.53A6.53,6.53,0,0,0,43,47c-1.28,0-1.71.51-1.71,2.21,0,2,1.28,1.79,1.28,2.56,0,.51-.59.6-1,.6" transform="translate(-25.3 -33.66)"/><path class="cls-8" d="M75.33,48.06a2.35,2.35,0,0,0-1.61-.85c-1.54,0-2,1.87-2,4.09,0,1.36-.17,2.81,1.28,2.81a2.29,2.29,0,0,0,1.62-.68l-.09.6h1.71l1.28-8.19m-2.22,4.44c0,.94-.77,2.13-1.71,2.13-.59,0-.93-.51-.93-1.37,0-1.36.59-2.21,1.36-2.21A1.3,1.3,0,0,1,75.25,50.28Z" transform="translate(-25.3 -33.66)"/><path class="cls-8" d="M28.45,53.94l1-6.13.18,6.13h1.19l2.21-6.13-.93,6.13h1.79l1.36-8.18H33.14l-2.39,5-.08-5h-.94l-2.9,8.18Z" transform="translate(-25.3 -33.66)"/><path class="cls-8" d="M53.09,53.94h1.79c.51-2.81.59-5.11,1.79-4.69a6.87,6.87,0,0,1,.59-2h-.34c-.76,0-1.36,1-1.36,1l.17-.94" transform="translate(-25.3 -33.66)"/><path class="cls-8" d="M63.15,49A5,5,0,0,1,65,48.66c.6,0,1.11.08,1.11.59,0,.35-.09.43-.09.43h-.76c-1.45,0-3.07.6-3.07,2.56,0,1.53,1,1.87,1.62,1.87a2.59,2.59,0,0,0,1.79-.76l-.09.68h1.54l.68-4.69c0-2-1.71-2.05-2.39-2.05M66.64,51a2.78,2.78,0,0,1-2,1.62.67.67,0,0,1-.68-.68c0-.43.26-1,1.54-1A7.07,7.07,0,0,0,66.64,51Z" transform="translate(-25.3 -33.66)"/><path class="cls-8" d="M67.41,53.94H69.2c.51-2.81.59-5.11,1.79-4.69a6.87,6.87,0,0,1,.59-2h-.34c-.76,0-1.36,1-1.36,1l.17-.94" transform="translate(-25.3 -33.66)"/></svg>